<svg viewBox="0 0 511.99978 511" xmlns="http://www.w3.org/2000/svg"><path d="m269.378906 512.480469c-8.285156 0-15-6.71875-15-15v-80.332031c0-8.285157 6.714844-15 15-15 8.28125 0 15 6.714843 15 15v80.332031c0 8.28125-6.714844 15-15 15zm0 0" fill="#d26a00"/><path d="m189.046875 512.480469c-8.28125 0-15-6.71875-15-15v-80.332031c0-8.285157 6.71875-15 15-15 8.285156 0 15 6.714843 15 15v80.332031c0 8.28125-6.714844 15-15 15zm0 0" fill="#ff9100"/><path d="m482.082031 122.03125-60.246093-22.203125c-4.601563-1.695313-9.742188-1.035156-13.765626 1.773437-4.023437 2.804688-6.421874 7.398438-6.421874 12.300782v80.332031c0 4.90625 2.398437 9.5 6.421874 12.304687 2.550782 1.78125 5.550782 2.695313 8.578126 2.695313 1.75 0 3.503906-.304687 5.1875-.925781l60.246093-22.203125c26.03125-9.597657 29.917969-24.191407 29.917969-32.039063s-3.886719-22.441406-29.917969-32.035156zm0 0" fill="#d26a00"/><path d="m318.246094.5c-31.121094 0-60.15625 12.375-81.753906 34.847656-5.289063 5.507813-10.035157 11.5625-14.109376 17.996094-.027343.046875-.054687.089844-.082031.132812l-220.058593 355.78125c-2.859376 4.628907-2.992188 10.441407-.34375 15.191407 2.644531 4.753906 7.660156 7.699219 13.101562 7.699219h267.765625c82.097656 0 148.882813-66.789063 148.882813-148.886719v-169.359375c0-62.53125-50.871094-113.402344-113.402344-113.402344zm0 0" fill="#7fe881"/><path d="m318.246094.5c-31.121094 0-60.15625 12.375-81.753906 34.847656-5.289063 5.507813-10.035157 11.5625-14.109376 17.996094-.027343.046875-.054687.089844-.082031.132812l-6.476562 10.472657v368.199219h66.941406c82.097656 0 148.882813-66.789063 148.882813-148.882813v-169.363281c0-62.53125-50.871094-113.402344-113.402344-113.402344zm0 0" fill="#1fbf66"/><path d="m336.3125 128.90625c-3.9375 0-7.808594-1.597656-10.597656-4.398438-2.789063-2.789062-4.390625-6.648437-4.390625-10.601562 0-3.949219 1.601562-7.820312 4.390625-10.609375 2.789062-2.789063 6.660156-4.398437 10.597656-4.398437 3.953125 0 7.820312 1.609374 10.613281 4.398437 2.789063 2.789063 4.398438 6.660156 4.398438 10.609375 0 3.941406-1.609375 7.8125-4.398438 10.601562-2.792969 2.800782-6.660156 4.398438-10.613281 4.398438zm0 0" fill="#552003"/><path d="m212.226562 98.261719c-7.042968-4.351563-16.28125-2.171875-20.640624 4.871093l-126.785157 204.984376c-4.347656 7.03125-2.1875 16.261718 4.839844 20.625 21.414063 13.316406 46.125 20.355468 71.453125 20.355468 74.710938 0 135.496094-60.785156 135.496094-135.496094 0-47.320312-24.058594-90.4375-64.363282-115.339843zm0 0" fill="#1fbf66"/><path d="m276.589844 213.601562c0-45.890624-22.636719-87.832031-60.765625-113.039062v226.003906c36.589843-24.285156 60.765625-65.851562 60.765625-112.964844zm0 0" fill="#00884a"/></svg>